<svg aria-hidden="true" style="position: absolute; width: 0; height: 0; overflow: hidden;" version="1.1" xmlns="http://www.w3.org/2000/svg" xmlns:xlink="http://www.w3.org/1999/xlink">
<defs>
<symbol id="icon-logo" viewBox="0 0 55 32">
<path fill="#173d33" style="fill: var(--color1, #173d33)" d="M37.919 22.771c-0.115-0.273-9.583-18.774-9.738-19.029-0.327-0.772-0.812-1.47-1.425-2.049s-1.34-1.028-2.136-1.317-1.644-0.414-2.492-0.366c-0.847 0.048-1.675 0.268-2.433 0.646s-1.427 0.906-1.968 1.55c-0.541 0.645-0.942 1.392-1.177 2.197s-0.299 1.647-0.189 2.477c0.11 0.83 0.393 1.628 0.83 2.345 0.115 0.273 9.177 17.981 9.332 18.236 0.116 0.274 0.251 0.539 0.406 0.793 0.327 0.772 0.812 1.47 1.425 2.049s1.34 1.028 2.136 1.317 1.644 0.414 2.492 0.366c0.847-0.048 1.675-0.268 2.433-0.646s1.427-0.906 1.968-1.55 0.942-1.393 1.177-2.197c0.235-0.804 0.299-1.647 0.189-2.477s-0.393-1.628-0.83-2.345z"></path>
<path fill="#97d28b" style="fill: var(--color2, #97d28b)" d="M26.985 10.252c0.58-0.61 1.027-1.331 1.312-2.119s0.402-1.625 0.345-2.46c-0.058-0.835-0.289-1.648-0.68-2.391s-0.933-1.397-1.592-1.924c-0.659-0.527-1.421-0.914-2.239-1.137s-1.673-0.278-2.513-0.161c-0.84 0.117-1.646 0.404-2.369 0.842s-1.346 1.019-1.831 1.705c-0.204 0.214-15.577 18.897-15.748 19.139-0.58 0.61-1.027 1.331-1.312 2.119s-0.403 1.625-0.345 2.46 0.289 1.649 0.68 2.391c0.391 0.742 0.933 1.397 1.592 1.924s1.421 0.914 2.239 1.137c0.817 0.223 1.673 0.278 2.513 0.161s1.646-0.404 2.369-0.842c0.723-0.438 1.346-1.019 1.831-1.705 0.204-0.214 15.577-18.897 15.748-19.139z"></path>
<path fill="#97d28b" style="fill: var(--color2, #97d28b)" d="M53.439 10.252c0.58-0.61 1.027-1.331 1.312-2.119s0.403-1.625 0.345-2.46c-0.058-0.835-0.289-1.648-0.68-2.391s-0.933-1.397-1.592-1.924c-0.659-0.527-1.421-0.914-2.239-1.137s-1.673-0.278-2.513-0.161c-0.84 0.117-1.646 0.404-2.369 0.842s-1.346 1.019-1.831 1.705c-0.204 0.214-15.577 18.897-15.748 19.138-0.58 0.61-1.027 1.332-1.312 2.119s-0.403 1.625-0.345 2.46c0.058 0.834 0.289 1.648 0.68 2.391s0.933 1.397 1.592 1.924c0.659 0.527 1.421 0.914 2.239 1.137s1.673 0.278 2.513 0.161c0.84-0.117 1.646-0.404 2.369-0.842s1.346-1.019 1.831-1.705c0.204-0.214 15.577-18.897 15.748-19.139z"></path>
</symbol>
<symbol id="icon-menu" viewBox="0 0 30 32">
<path stroke-linejoin="miter" stroke-linecap="round" stroke-miterlimit="4" stroke-width="1.8824" d="M3.765 9.726h22.588"></path>
<path stroke-linejoin="miter" stroke-linecap="round" stroke-miterlimit="4" stroke-width="1.8824" d="M3.765 16h22.588"></path>
<path stroke-linejoin="miter" stroke-linecap="round" stroke-miterlimit="4" stroke-width="1.8824" d="M3.765 22.274h22.588"></path>
</symbol>
<symbol id="icon-close-menu" viewBox="0 0 32 32">
<path stroke-linejoin="round" stroke-linecap="round" stroke-miterlimit="4" stroke-width="2.4" d="M9.333 9.333l13.333 13.333M9.333 22.667l13.333-13.333"></path>
</symbol>
<symbol id="icon-arrow-right-up" viewBox="0 0 30 32">
<path stroke-linejoin="round" stroke-linecap="round" stroke-miterlimit="10" stroke-width="1.8824" d="M11.829 8.456h10.772v10.772"></path>
<path stroke-linejoin="round" stroke-linecap="round" stroke-miterlimit="10" stroke-width="1.8824" d="M7.517 23.541l14.934-14.934"></path>
</symbol>
<symbol id="icon-facebook" viewBox="0 0 32 32">
<path d="M18.667 12.4v3.867h3.467c0.267 0 0.4 0.267 0.4 0.533l-0.533 2.533c0 0.133-0.267 0.267-0.4 0.267h-2.933v9.733h-4v-9.6h-2.267c-0.267 0-0.4-0.133-0.4-0.4v-2.533c0-0.267 0.133-0.4 0.4-0.4h2.267v-4.4c0-2.267 1.733-4 4-4h3.6c0.267 0 0.4 0.133 0.4 0.4v3.2c0 0.267-0.133 0.4-0.4 0.4h-3.2c-0.267 0-0.4 0.133-0.4 0.4z"></path>
<path fill="none" stroke-linejoin="round" stroke-linecap="round" stroke-miterlimit="4" stroke-width="2" d="M20 29.333h-8c-6.667 0-9.333-2.667-9.333-9.333v-8c0-6.667 2.667-9.333 9.333-9.333h8c6.667 0 9.333 2.667 9.333 9.333v8c0 6.667-2.667 9.333-9.333 9.333z"></path>
</symbol>
<symbol id="icon-instagram" viewBox="0 0 32 32">
<path fill="none" stroke-linejoin="round" stroke-linecap="round" stroke-miterlimit="4" stroke-width="2" d="M12 29.333h8c6.667 0 9.333-2.667 9.333-9.333v-8c0-6.667-2.667-9.333-9.333-9.333h-8c-6.667 0-9.333 2.667-9.333 9.333v8c0 6.667 2.667 9.333 9.333 9.333z"></path>
<path fill="none" stroke-linejoin="round" stroke-linecap="round" stroke-miterlimit="4" stroke-width="2" d="M16 20.667c2.577 0 4.667-2.089 4.667-4.667s-2.089-4.667-4.667-4.667c-2.577 0-4.667 2.089-4.667 4.667s2.089 4.667 4.667 4.667z"></path>
<path fill="none" stroke-linejoin="round" stroke-linecap="round" stroke-miterlimit="4" stroke-width="2.6667" d="M23.515 9.333h0.015"></path>
</symbol>
<symbol id="icon-ellipse" viewBox="0 0 30 32">
<path d="M29.867 16c0 8.247-6.686 14.933-14.933 14.933s-14.933-6.686-14.933-14.933c0-8.247 6.686-14.933 14.933-14.933s14.933 6.686 14.933 14.933z"></path>
</symbol>
<symbol id="icon-group-31" viewBox="0 0 30 32">
<path d="M29.867 16c0 8.247-6.686 14.933-14.933 14.933s-14.933-6.686-14.933-14.933c0-8.247 6.686-14.933 14.933-14.933s14.933 6.686 14.933 14.933z"></path>
<path stroke-linejoin="round" stroke-linecap="round" stroke-miterlimit="10" stroke-width="1.7784" d="M19.789 17.728l-4.856 4.316-4.856-4.316"></path>
<path stroke-linejoin="round" stroke-linecap="round" stroke-miterlimit="10" stroke-width="1.7784" d="M14.932 9.956v11.968"></path>
</symbol>
<symbol id="icon-arrow-right" viewBox="0 0 30 32">
<path stroke-linejoin="round" stroke-linecap="round" stroke-miterlimit="10" stroke-width="1.8824" d="M18.108 8.382l7.617 7.617-7.617 7.617"></path>
<path stroke-linejoin="round" stroke-linecap="round" stroke-miterlimit="10" stroke-width="1.8824" d="M4.392 16h21.12"></path>
</symbol>
</defs>
</svg>
